<svg width="24" height="24" xmlns="http://www.w3.org/2000/svg">
  <!-- Chibi mascot body -->
  <rect x="7" y="7" width="10" height="9" fill="#d96882"/>
  <rect x="8" y="8" width="8" height="3" fill="#ee92a7"/>
  <rect x="6" y="10" width="1" height="5" fill="#d96882"/>
  <rect x="17" y="10" width="1" height="5" fill="#d96882"/>
  <!-- Face -->
  <rect x="10" y="11" width="1" height="1" fill="#2b2635"/>
  <rect x="13" y="11" width="1" height="1" fill="#2b2635"/>
  <rect x="11" y="13" width="2" height="1" fill="#a6425f"/>
  <rect x="9" y="12" width="1" height="1" fill="#e17a93"/>
  <rect x="14" y="12" width="1" height="1" fill="#e17a93"/>
  <!-- Feet -->
  <rect x="8" y="16" width="3" height="2" fill="#bd546f"/>
  <rect x="13" y="16" width="3" height="2" fill="#bd546f"/>
  <!-- Softer outline -->
  <rect x="7" y="7" width="10" height="1" fill="#5a3846"/>
  <rect x="6" y="10" width="1" height="5" fill="#5a3846"/>
  <rect x="17" y="10" width="1" height="5" fill="#5a3846"/>
  <rect x="7" y="15" width="10" height="1" fill="#5a3846"/>
  <rect x="8" y="17" width="8" height="1" fill="#5a3846"/>
  <rect x="11" y="9" width="1" height="1" fill="#f0a9ba"/>
</svg>
