<svg width="24" height="24" xmlns="http://www.w3.org/2000/svg">
  <!-- Ears -->
  <rect x="7" y="4" width="3" height="3" fill="#171a23"/>
  <rect x="14" y="4" width="3" height="3" fill="#171a23"/>
  <rect x="8" y="5" width="1" height="1" fill="#c7ab88"/>
  <rect x="15" y="5" width="1" height="1" fill="#c7ab88"/>
  <!-- Head -->
  <rect x="7" y="7" width="10" height="6" fill="#202532"/>
  <rect x="9" y="8" width="6" height="3" fill="#cfb793"/>
  <rect x="10" y="9" width="1" height="1" fill="#2a2733"/>
  <rect x="13" y="9" width="1" height="1" fill="#2a2733"/>
  <rect x="11" y="11" width="2" height="1" fill="#5c3430"/>
  <!-- Body -->
  <rect x="6" y="13" width="12" height="7" fill="#1d212d"/>
  <rect x="9" y="14" width="6" height="3" fill="#e1c9ac"/>
  <rect x="7" y="13" width="10" height="1" fill="#2c3242"/>
  <!-- Legs -->
  <rect x="7" y="20" width="3" height="2" fill="#13161f"/>
  <rect x="14" y="20" width="3" height="2" fill="#13161f"/>
  <!-- Tail -->
  <rect x="18" y="14" width="2" height="4" fill="#202532"/>
  <rect x="19" y="12" width="2" height="2" fill="#202532"/>
  <!-- Softer outline -->
  <rect x="7" y="4" width="10" height="1" fill="#1a1f2b"/>
  <rect x="6" y="7" width="1" height="13" fill="#1a1f2b"/>
  <rect x="17" y="7" width="1" height="13" fill="#1a1f2b"/>
  <rect x="7" y="19" width="10" height="1" fill="#1a1f2b"/>
  <rect x="7" y="21" width="10" height="1" fill="#1a1f2b"/>
  <rect x="11" y="15" width="1" height="1" fill="#d8c1a5"/>
  <rect x="13" y="16" width="1" height="1" fill="#d8c1a5"/>
</svg>
