<svg width="24" height="24" xmlns="http://www.w3.org/2000/svg">
  <!-- Hair -->
  <rect x="7" y="4" width="10" height="4" fill="#2a3148"/>
  <rect x="6" y="5" width="12" height="3" fill="#1f2538"/>
  <rect x="10" y="4" width="2" height="1" fill="#4f5d84"/>
  <!-- Face -->
  <rect x="8" y="8" width="8" height="6" fill="#e8b892"/>
  <rect x="10" y="10" width="1" height="1" fill="#232634"/>
  <rect x="13" y="10" width="1" height="1" fill="#232634"/>
  <rect x="11" y="12" width="2" height="1" fill="#935868"/>
  <!-- Jacket -->
  <rect x="7" y="14" width="10" height="6" fill="#3f63be"/>
  <rect x="8" y="14" width="8" height="2" fill="#6c8de4"/>
  <rect x="11" y="14" width="2" height="4" fill="#e6ebf5"/>
  <!-- Arms + legs -->
  <rect x="5" y="15" width="2" height="4" fill="#e8b892"/>
  <rect x="17" y="15" width="2" height="4" fill="#e8b892"/>
  <rect x="8" y="20" width="3" height="3" fill="#313c5a"/>
  <rect x="13" y="20" width="3" height="3" fill="#313c5a"/>
  <!-- Softer outline -->
  <rect x="7" y="4" width="10" height="1" fill="#2f3345"/>
  <rect x="6" y="5" width="1" height="3" fill="#2f3345"/>
  <rect x="17" y="5" width="1" height="3" fill="#2f3345"/>
  <rect x="7" y="8" width="1" height="12" fill="#2f3345"/>
  <rect x="16" y="8" width="1" height="12" fill="#2f3345"/>
  <rect x="7" y="19" width="10" height="1" fill="#2f3345"/>
  <rect x="8" y="22" width="8" height="1" fill="#2f3345"/>
  <rect x="9" y="16" width="1" height="1" fill="#5674cb"/>
  <rect x="14" y="17" width="1" height="1" fill="#5674cb"/>
</svg>
