<svg width="24" height="24" xmlns="http://www.w3.org/2000/svg">
  <!-- Hair (Gen 3 style clusters) -->
  <rect x="6" y="3" width="12" height="5" fill="#d3a53a"/>
  <rect x="5" y="5" width="14" height="4" fill="#bd8f2c"/>
  <rect x="5" y="8" width="3" height="8" fill="#a67722"/>
  <rect x="16" y="8" width="3" height="8" fill="#a67722"/>
  <rect x="7" y="4" width="3" height="1" fill="#f0cc6d"/>
  <rect x="14" y="4" width="3" height="1" fill="#f0cc6d"/>
  <!-- Face -->
  <rect x="8" y="8" width="8" height="5" fill="#efc39f"/>
  <rect x="9" y="10" width="1" height="1" fill="#222634"/>
  <rect x="14" y="10" width="1" height="1" fill="#222634"/>
  <rect x="11" y="12" width="2" height="1" fill="#a45a69"/>
  <!-- Outfit -->
  <rect x="7" y="13" width="10" height="6" fill="#c94267"/>
  <rect x="8" y="13" width="8" height="2" fill="#e26f8b"/>
  <rect x="11" y="13" width="2" height="4" fill="#eceef4"/>
  <rect x="5" y="14" width="2" height="4" fill="#efc39f"/>
  <rect x="17" y="14" width="2" height="4" fill="#efc39f"/>
  <rect x="8" y="19" width="3" height="2" fill="#2b3147"/>
  <rect x="13" y="19" width="3" height="2" fill="#2b3147"/>
  <!-- Softer outline + breakup -->
  <rect x="6" y="3" width="12" height="1" fill="#584045"/>
  <rect x="5" y="5" width="1" height="11" fill="#584045"/>
  <rect x="18" y="5" width="1" height="11" fill="#584045"/>
  <rect x="7" y="13" width="10" height="1" fill="#584045"/>
  <rect x="7" y="18" width="10" height="1" fill="#584045"/>
  <rect x="8" y="20" width="8" height="1" fill="#584045"/>
  <rect x="10" y="16" width="1" height="1" fill="#d56e88"/>
  <rect x="14" y="15" width="1" height="1" fill="#d56e88"/>
</svg>
